<svg width="50" height="61" viewBox="0 0 50 61" fill="none" xmlns="http://www.w3.org/2000/svg">
<path d="M48 2.00497e-05H39C37.4787 -0.00319631 35.9815 0.380611 34.6494 1.11534C33.3173 1.85007 32.1939 2.91158 31.385 4.20002C30.643 3.20675 29.6794 2.40029 28.571 1.84477C27.4626 1.28926 26.2398 0.999996 25 0.999996C23.7602 0.999996 22.5374 1.28926 21.429 1.84477C20.3206 2.40029 19.357 3.20675 18.615 4.20002C17.8061 2.91158 16.6827 1.85007 15.3506 1.11534C14.0185 0.380611 12.5213 -0.00319631 11 2.00497e-05H2C1.46957 2.00497e-05 0.960859 0.210734 0.585786 0.585806C0.210714 0.960879 0 1.46959 0 2.00002V16C0 16.5305 0.210714 17.0392 0.585786 17.4142C0.960859 17.7893 1.46957 18 2 18H11C12.5211 17.9971 14.0164 17.6078 15.3458 16.8686C16.6752 16.1294 17.7949 15.0645 18.6 13.774C19.5107 14.9944 20.7495 15.9308 22.172 16.474C21.4447 17.4487 21.0373 18.6249 21.006 19.8407C20.9746 21.0565 21.3209 22.2521 21.997 23.263C18.6542 23.8045 15.5164 25.2284 12.9077 27.3877C10.2989 29.5469 8.31372 32.3633 7.157 35.546C7.12777 35.6062 7.10465 35.6692 7.088 35.734C6.3735 37.7461 6.00561 39.8648 6 42V47C6 47.5305 6.21071 48.0392 6.58579 48.4142C6.96086 48.7893 7.46957 49 8 49H21.685C21.2164 50.2809 20.9843 51.6362 21 53C21 56.991 22.72 60 25 60C27.28 60 29 56.991 29 53C29.0157 51.6362 28.7836 50.2809 28.315 49H42C42.5304 49 43.0391 48.7893 43.4142 48.4142C43.7893 48.0392 44 47.5305 44 47V42C43.9959 39.8651 43.6293 37.7463 42.916 35.734C42.8995 35.6688 42.8764 35.6055 42.847 35.545C41.6903 32.3623 39.7051 29.5459 37.0963 27.3867C34.4876 25.2274 31.3498 23.8035 28.007 23.262C28.6831 22.2511 29.0294 21.0555 28.998 19.8397C28.9667 18.6239 28.5593 17.4477 27.832 16.473C29.2545 15.9298 30.4933 14.9934 31.404 13.773C32.2086 15.0632 33.3277 16.1278 34.6563 16.8672C35.9849 17.6065 37.4795 17.9963 39 18H48C48.5304 18 49.0391 17.7893 49.4142 17.4142C49.7893 17.0392 50 16.5305 50 16V2.00002C50 1.46959 49.7893 0.960879 49.4142 0.585806C49.0391 0.210734 48.5304 2.00497e-05 48 2.00497e-05ZM11 16H2V2.00002H11C11.9196 1.99873 12.8305 2.17887 13.6804 2.53013C14.5303 2.88138 15.3026 3.39686 15.953 4.04702C16.6056 4.70437 17.1188 5.48665 17.462 6.34702C17.2707 6.88686 17.1383 7.44576 17.067 8.01402C17.044 8.01402 17.024 8.00002 17 8.00002H7C6.73478 8.00002 6.48043 8.10538 6.29289 8.29291C6.10536 8.48045 6 8.7348 6 9.00002C6 9.26524 6.10536 9.51959 6.29289 9.70713C6.48043 9.89466 6.73478 10 7 10H17C17.024 10 17.044 9.98802 17.067 9.98602C17.1372 10.5501 17.268 11.1049 17.457 11.641C16.9368 12.9278 16.0445 14.03 14.8941 14.8065C13.7438 15.5831 12.3879 15.9987 11 16ZM41.949 41H8.049C8.12104 39.6434 8.35606 38.3004 8.749 37H41.247C41.6406 38.3004 41.8763 39.6434 41.949 41ZM27 53C27 56.052 25.815 58 25 58C24.185 58 23 56.052 23 53C22.9655 51.615 23.2678 50.2424 23.881 49H26.119C26.7322 50.2424 27.0345 51.615 27 53ZM8 47V43H42V47H8ZM40.474 35H9.526C10.8685 32.0202 13.0429 29.4913 15.7879 27.7174C18.5329 25.9434 21.7317 24.9997 25 24.9997C28.2683 24.9997 31.4671 25.9434 34.2121 27.7174C36.9571 29.4913 39.1315 32.0202 40.474 35ZM27 20C27 21.626 26.084 23 25 23C23.916 23 23 21.626 23 20C23 18.374 23.916 17 25 17C26.084 17 27 18.374 27 20ZM25 15C23.8133 15 22.6533 14.6481 21.6666 13.9888C20.6799 13.3295 19.9108 12.3925 19.4567 11.2961C19.0026 10.1998 18.8838 8.99336 19.1153 7.82948C19.3468 6.66559 19.9182 5.59649 20.7574 4.75738C21.5965 3.91826 22.6656 3.34682 23.8295 3.11531C24.9933 2.8838 26.1997 3.00262 27.2961 3.45674C28.3925 3.91087 29.3295 4.6799 29.9888 5.6666C30.6481 6.65329 31 7.81333 31 9.00002C30.9984 10.5908 30.3658 12.116 29.2409 13.2409C28.116 14.3658 26.5908 14.9984 25 15ZM48 16H39C37.6121 15.9987 36.2562 15.5831 35.1059 14.8065C33.9555 14.03 33.0632 12.9278 32.543 11.641C32.732 11.1049 32.8628 10.5501 32.933 9.98602C32.956 9.98602 32.976 10 33 10H43C43.2652 10 43.5196 9.89466 43.7071 9.70713C43.8946 9.51959 44 9.26524 44 9.00002C44 8.7348 43.8946 8.48045 43.7071 8.29291C43.5196 8.10538 43.2652 8.00002 43 8.00002H33C32.976 8.00002 32.956 8.01202 32.933 8.01402C32.8601 7.44557 32.726 6.88667 32.533 6.34702C32.8751 5.48659 33.3877 4.70424 34.04 4.04702C34.6913 3.39606 35.4647 2.88014 36.3159 2.52886C37.167 2.17758 38.0792 1.99786 39 2.00002H48V16Z" fill="#DD7713"/>
</svg>
