<svg width="50" height="60" viewBox="0 0 50 60" fill="none" xmlns="http://www.w3.org/2000/svg">
<path d="M19.6577 18.0952C19.6577 18.411 19.7995 18.7138 20.052 18.937C20.3044 19.1603 20.6468 19.2857 21.0038 19.2857L23.5615 19.2857C23.9186 19.2857 24.261 19.1603 24.5134 18.937C24.7659 18.7138 24.9077 18.411 24.9077 18.0952C24.9077 17.7795 24.7659 17.4767 24.5134 17.2534C24.261 17.0302 23.9186 16.9048 23.5615 16.9048L21.0038 16.9048C20.6468 16.9048 20.3044 17.0302 20.052 17.2534C19.7995 17.4767 19.6577 17.7795 19.6577 18.0952Z" fill="#DD7713"/>
<path d="M26.0923 18.0952C26.0923 18.411 26.2341 18.7138 26.4866 18.937C26.739 19.1603 27.0814 19.2857 27.4385 19.2857H29.9962C30.3532 19.2857 30.6956 19.1603 30.948 18.937C31.2005 18.7138 31.3423 18.411 31.3423 18.0952C31.3423 17.7795 31.2005 17.4767 30.948 17.2534C30.6956 17.0302 30.3532 16.9048 29.9962 16.9048L27.4385 16.9048C27.0814 16.9048 26.739 17.0302 26.4866 17.2534C26.2341 17.4767 26.0923 17.7795 26.0923 18.0952Z" fill="#DD7713"/>
<path d="M32.5269 18.0952C32.5269 18.411 32.6687 18.7138 32.9212 18.937C33.1737 19.1603 33.5161 19.2857 33.8731 19.2857L36.5654 19.2857C36.9224 19.2857 37.2648 19.1603 37.5173 18.937C37.7697 18.7138 37.9115 18.411 37.9115 18.0952C37.9115 17.7795 37.7697 17.4767 37.5173 17.2534C37.2648 17.0302 36.9224 16.9048 36.5654 16.9048L33.8731 16.9048C33.5161 16.9048 33.1737 17.0302 32.9212 17.2534C32.6687 17.4767 32.5269 17.7795 32.5269 18.0952Z" fill="#DD7713"/>
<path d="M13.1962 18.0952C13.1962 18.411 13.338 18.7138 13.5904 18.937C13.8429 19.1603 14.1853 19.2857 14.5423 19.2857L17.2346 19.2857C17.5916 19.2857 17.934 19.1603 18.1865 18.937C18.4389 18.7138 18.5808 18.411 18.5808 18.0952C18.5808 17.7795 18.4389 17.4767 18.1865 17.2534C17.934 17.0302 17.5916 16.9048 17.2346 16.9048L14.5423 16.9048C14.1853 16.9048 13.8429 17.0302 13.5904 17.2534C13.338 17.4767 13.1962 17.7795 13.1962 18.0952Z" fill="#DD7713"/>
<path d="M24.1538 24.0476L24.1538 43.0952C24.1538 43.411 24.2957 43.7138 24.5481 43.937C24.8006 44.1603 25.143 44.2857 25.5 44.2857C25.857 44.2857 26.1994 44.1603 26.4519 43.937C26.7043 43.7138 26.8462 43.411 26.8462 43.0952V24.0476C26.8462 23.7319 26.7043 23.4291 26.4519 23.2058C26.1994 22.9826 25.857 22.8571 25.5 22.8571C25.143 22.8571 24.8006 22.9826 24.5481 23.2058C24.2957 23.4291 24.1538 23.7319 24.1538 24.0476Z" fill="#DD7713"/>
<path d="M29.5385 24.0476L29.5385 43.0952C29.5385 43.411 29.6803 43.7138 29.9327 43.937C30.1852 44.1603 30.5276 44.2857 30.8846 44.2857C31.2416 44.2857 31.584 44.1603 31.8365 43.937C32.0889 43.7138 32.2308 43.411 32.2308 43.0952L32.2308 24.0476C32.2308 23.7319 32.0889 23.4291 31.8365 23.2058C31.584 22.9826 31.2416 22.8571 30.8846 22.8571C30.5276 22.8571 30.1852 22.9826 29.9327 23.2058C29.6803 23.4291 29.5385 23.7319 29.5385 24.0476Z" fill="#DD7713"/>
<path d="M18.7692 24.0476V43.0952C18.7692 43.411 18.9111 43.7138 19.1635 43.937C19.416 44.1603 19.7584 44.2857 20.1154 44.2857C20.4724 44.2857 20.8148 44.1603 21.0673 43.937C21.3197 43.7138 21.4615 43.411 21.4615 43.0952V24.0476C21.4615 23.7319 21.3197 23.4291 21.0673 23.2058C20.8148 22.9826 20.4724 22.8571 20.1154 22.8571C19.7584 22.8571 19.416 22.9826 19.1635 23.2058C18.9111 23.4291 18.7692 23.7319 18.7692 24.0476Z" fill="#DD7713"/>
<path d="M21.4615 6.19048C21.4615 5.87475 21.3197 5.57194 21.0673 5.34868C20.8148 5.12543 20.4724 5 20.1154 5L9.34615 5C8.98913 5 8.64673 5.12543 8.39428 5.34868C8.14183 5.57194 8 5.87474 8 6.19048L8 53.8095C8 54.1253 8.14183 54.4281 8.39428 54.6513C8.64673 54.8746 8.98913 55 9.34615 55L20.1154 55C20.4724 55 20.8148 54.8746 21.0673 54.6513C21.3197 54.4281 21.4615 54.1253 21.4615 53.8095C21.4615 52.8623 21.887 51.9539 22.6444 51.2841C23.4017 50.6144 24.4289 50.2381 25.5 50.2381C26.5711 50.2381 27.5983 50.6144 28.3556 51.2841C29.113 51.9539 29.5385 52.8623 29.5385 53.8095C29.5385 54.1253 29.6803 54.4281 29.9327 54.6513C30.1852 54.8746 30.5276 55 30.8846 55L41.6538 55C42.0109 55 42.3533 54.8746 42.6057 54.6513C42.8582 54.4281 43 54.1253 43 53.8095L43 6.19048C43 5.87474 42.8582 5.57194 42.6057 5.34868C42.3533 5.12543 42.0109 5 41.6538 5L30.8846 5C30.5276 5 30.1852 5.12542 29.9327 5.34868C29.6803 5.57194 29.5385 5.87474 29.5385 6.19048C29.5385 7.13768 29.113 8.04608 28.3556 8.71586C27.5983 9.38563 26.5711 9.76191 25.5 9.76191C24.4289 9.76191 23.4017 9.38563 22.6444 8.71586C21.887 8.04609 21.4615 7.13768 21.4615 6.19048ZM32.2308 7.38095H40.3077V16.9048C39.9507 16.9048 39.6083 17.0302 39.3558 17.2534C39.1034 17.4767 38.9615 17.7795 38.9615 18.0952C38.9615 18.411 39.1034 18.7138 39.3558 18.937C39.6083 19.1603 39.9507 19.2857 40.3077 19.2857L40.3077 52.619H32.2308C31.9218 51.2735 31.0963 50.0637 29.8942 49.1948C28.6921 48.3259 27.1872 47.8512 25.6346 47.8512C24.082 47.8512 22.5772 48.3259 21.375 49.1948C20.1729 50.0637 19.3474 51.2735 19.0385 52.619H10.6923L10.6923 19.2857C11.0493 19.2857 11.3917 19.1603 11.6442 18.937C11.8966 18.7138 12.0385 18.411 12.0385 18.0952C12.0385 17.7795 11.8966 17.4767 11.6442 17.2534C11.3917 17.0302 11.0493 16.9048 10.6923 16.9048L10.6923 7.38095L18.9038 7.38095C19.1325 8.79982 19.9323 10.0981 21.1564 11.0373C22.3805 11.9765 23.9467 12.4936 25.5673 12.4936C27.1879 12.4936 28.7541 11.9765 29.9782 11.0373C31.2023 10.0981 32.0021 8.79982 32.2308 7.38095Z" fill="#DD7713"/>
</svg>
