<svg width="50" height="61" viewBox="0 0 50 61" fill="none" xmlns="http://www.w3.org/2000/svg">
<path d="M49.0895 48.892C48.8019 48.6079 48.4575 48.3825 48.077 48.2292C47.6964 48.076 47.2876 47.998 46.8749 48H45.8333C45.557 48 45.292 47.8946 45.0967 47.7071C44.9013 47.5196 44.7916 47.2652 44.7916 47V29.43C44.8021 24.4414 42.8273 19.6373 39.2708 16H42.7083C43.2608 16 43.7907 15.7893 44.1814 15.4142C44.5721 15.0391 44.7916 14.5304 44.7916 14V2C44.7916 1.46957 44.5721 0.960859 44.1814 0.585786C43.7907 0.210714 43.2608 0 42.7083 0H35.4166C34.1405 0.0053955 32.8881 0.332221 31.7848 0.947814C30.6815 1.56341 29.7657 2.44621 29.1291 3.508C27.9917 2.53663 26.5223 2.00001 25 2.00001C23.4776 2.00001 22.0082 2.53663 20.8708 3.508C20.2342 2.44621 19.3185 1.56341 18.2151 0.947814C17.1118 0.332221 15.8594 0.0053955 14.5833 0H7.29165C6.73912 0 6.20922 0.210714 5.81852 0.585786C5.42782 0.960859 5.20832 1.46957 5.20832 2V14C5.20832 14.5304 5.42782 15.0391 5.81852 15.4142C6.20922 15.7893 6.73912 16 7.29165 16H10.5802C7.12073 19.5126 5.19784 24.166 5.20832 29V47C5.20832 47.2652 5.09858 47.5196 4.90323 47.7071C4.70788 47.8946 4.44293 48 4.16666 48H3.12499C2.29619 48 1.50134 48.3161 0.915289 48.8787C0.329239 49.4413 0 50.2043 0 51C0.00410695 51.7944 0.334665 52.5552 0.919827 53.117C1.50499 53.6787 2.29746 53.9961 3.12499 54H17.7916C18.0407 55.6649 18.9066 57.1877 20.2306 58.2893C21.5546 59.3908 23.2479 59.9972 25 59.9972C26.752 59.9972 28.4453 59.3908 29.7693 58.2893C31.0933 57.1877 31.9592 55.6649 32.2083 54H46.8749C47.7037 54 48.4986 53.6839 49.0846 53.1213C49.6707 52.5587 49.9999 51.7957 49.9999 51C50.0029 50.608 49.9238 50.2195 49.7674 49.8573C49.611 49.4952 49.3805 49.167 49.0895 48.892ZM35.4166 2H42.7083V14H35.4166C34.3566 13.9955 33.3232 13.6806 32.4545 13.0974C31.5858 12.5142 30.9232 11.6903 30.5552 10.736C30.8476 10.1906 31.0504 9.60497 31.1562 9H36.4583C36.7345 9 36.9995 8.89464 37.1948 8.70711C37.3902 8.51957 37.4999 8.26522 37.4999 8C37.4999 7.73478 37.3902 7.48043 37.1948 7.29289C36.9995 7.10536 36.7345 7 36.4583 7H31.1562C31.0504 6.39503 30.8476 5.80943 30.5552 5.264C30.9232 4.30965 31.5858 3.48583 32.4545 2.9026C33.3232 2.31936 34.3566 2.00447 35.4166 2ZM25 4C25.824 4 26.6296 4.2346 27.3148 4.67412C28 5.11365 28.5341 5.73836 28.8495 6.46927C29.1648 7.20017 29.2473 8.00444 29.0866 8.78036C28.9258 9.55628 28.5289 10.269 27.9462 10.8284C27.3635 11.3878 26.6211 11.7688 25.8128 11.9231C25.0046 12.0775 24.1668 11.9983 23.4054 11.6955C22.6441 11.3928 21.9933 10.8801 21.5355 10.2223C21.0777 9.56448 20.8333 8.79113 20.8333 8C20.8333 6.93913 21.2723 5.92172 22.0537 5.17157C22.8351 4.42143 23.8949 4 25 4ZM7.29165 2H14.5833C15.6434 2.00447 16.6767 2.31936 17.5454 2.9026C18.4141 3.48583 19.0767 4.30965 19.4448 5.264C19.1523 5.80943 18.9496 6.39503 18.8437 7H13.5416C13.2654 7 13.0004 7.10536 12.8051 7.29289C12.6097 7.48043 12.5 7.73478 12.5 8C12.5 8.26522 12.6097 8.51957 12.8051 8.70711C13.0004 8.89464 13.2654 9 13.5416 9H18.8437C18.9496 9.60497 19.1523 10.1906 19.4448 10.736C19.0767 11.6903 18.4141 12.5142 17.5454 13.0974C16.6767 13.6806 15.6434 13.9955 14.5833 14H7.29165V2ZM25 58C23.7997 57.9987 22.6366 57.6002 21.7068 56.8715C20.777 56.1428 20.1374 55.1287 19.8958 54H30.1041C29.8625 55.1287 29.2229 56.1428 28.2931 56.8715C27.3633 57.6002 26.2002 57.9987 25 58ZM46.8749 52H3.12499C2.98614 52.0004 2.84867 51.9735 2.7211 51.9209C2.59352 51.8682 2.47856 51.791 2.38333 51.694C2.28714 51.6037 2.21097 51.4957 2.15941 51.3764C2.10786 51.2572 2.08198 51.1291 2.08333 51C2.08333 50.7348 2.19308 50.4804 2.38843 50.2929C2.58378 50.1054 2.84873 50 3.12499 50H4.16666C4.99546 50 5.79032 49.6839 6.37637 49.1213C6.96242 48.5587 7.29165 47.7957 7.29165 47V29C7.28725 26.5193 7.85271 24.0681 8.94776 21.8211C10.0428 19.5741 11.6405 17.5865 13.6271 16H14.5833C15.8594 15.9946 17.1118 15.6678 18.2151 15.0522C19.3185 14.4366 20.2342 13.5538 20.8708 12.492C22.0082 13.4634 23.4776 14 25 14C26.5223 14 27.9917 13.4634 29.1291 12.492C29.7657 13.5538 30.6815 14.4366 31.7848 15.0522C32.8881 15.6678 34.1405 15.9946 35.4166 16H36.2437C38.2743 17.6521 39.9048 19.7098 41.0214 22.0294C42.1379 24.3491 42.7136 26.8747 42.7083 29.43V47C42.7083 47.7957 43.0375 48.5587 43.6236 49.1213C44.2096 49.6839 45.0045 50 45.8333 50H46.8749C47.0138 49.9996 47.1512 50.0265 47.2788 50.0791C47.4064 50.1318 47.5214 50.209 47.6166 50.306C47.7128 50.3963 47.7889 50.5043 47.8405 50.6236C47.8921 50.7428 47.9179 50.8709 47.9166 51C47.9166 51.2652 47.8068 51.5196 47.6115 51.7071C47.4161 51.8946 47.1512 52 46.8749 52Z" fill="#DD7713"/>
<path d="M10 47C10 46.4477 10.4477 46 11 46H39C39.5523 46 40 46.4477 40 47C40 47.5523 39.5523 48 39 48H11C10.4477 48 10 47.5523 10 47Z" fill="#DD7713"/>
</svg>
