<svg width="10" height="10" viewBox="0 0 10 10" fill="none" xmlns="http://www.w3.org/2000/svg">
<path fill-rule="evenodd" clip-rule="evenodd" d="M5.01577 0C7.76025 0 10 2.23975 10 5.01577C10 7.76025 7.76025 10 5.01577 10C2.23975 10 0 7.76025 0 5.01577C0 2.23975 2.23975 0 5.01577 0ZM4.03785 4.85804C4.03785 4.85804 3.84858 4.8265 3.81703 4.8265C3.50158 4.88959 3.50158 4.8265 3.78549 5.01577C3.97476 5.14196 3.91167 5.14196 4.10095 5.11041C4.16404 5.14196 4.22713 5.14196 4.29022 5.1735C4.29022 5.20505 4.29022 5.26814 4.29022 5.29968C4.29022 5.29968 4.44795 5.39432 4.4795 5.39432H4.73186C4.76341 5.39432 5.01577 5.23659 4.57413 5.11041C4.51104 5.11041 4.4164 5.11041 4.32177 5.14196C4.29022 5.07886 4.25867 5.01577 4.19558 4.95268C4.19558 4.95268 4.00631 4.85804 4.03785 4.85804ZM8.8959 2.52366C9.33754 3.24921 9.62145 4.10095 9.62145 5.01577C9.62145 5.26814 9.5899 5.55205 9.55836 5.80442C9.33754 5.61514 9.11672 5.45741 9.08517 5.42587C8.99054 5.33123 8.99054 5.48896 8.92744 5.67823C8.8959 5.89905 8.64353 5.70978 8.45426 5.70978C8.26498 5.70978 8.1388 5.45741 8.1388 5.45741C7.7918 5.1735 7.88644 5.01577 7.88644 4.57413C7.88644 4.44795 7.94953 4.29022 8.04416 4.22713C8.26498 3.97476 8.07571 3.81703 8.32808 3.62776C8.42271 3.56467 8.76972 3.47003 8.76972 3.47003C8.95899 3.21767 9.05363 3.15457 8.58044 3.24921C8.5489 3.28076 8.35962 3.24921 8.26498 3.18612C8.1388 3.09148 8.42271 3.02839 8.42271 3.02839C8.5489 2.87066 8.67508 2.74448 8.80126 2.6183C8.83281 2.58675 8.86435 2.5552 8.8959 2.52366ZM5.01577 0.410095C5.45741 0.410095 5.86751 0.473186 6.2776 0.567823C6.37224 0.694006 6.52997 0.883281 6.56151 0.914826C6.59306 0.946372 6.6877 1.19874 6.6877 1.19874C6.49842 1.48265 6.43533 1.64038 6.02524 1.4511C5.89905 1.41956 5.67823 1.1041 5.67823 1.1041C5.67823 1.1041 5.33123 0.725552 5.26814 0.694006C5.14196 0.599369 4.95268 0.662461 4.85804 0.820189C4.92114 0.914826 4.95268 0.977918 5.01577 1.07256C5.29968 1.07256 5.29968 1.00946 5.39432 1.23028C5.29968 1.26183 5.20505 1.29338 5.07886 1.32492C4.79495 1.5142 4.88959 1.5142 4.57413 1.29338C4.57413 1.29338 4.38486 1.07256 4.35331 1.04101C4.32177 1.00946 4.19558 0.725552 4.13249 0.630915C4.13249 0.599369 4.10095 0.536278 4.13249 0.473186C4.4164 0.44164 4.70031 0.410095 5.01577 0.410095ZM5.1735 9.62145C4.85804 9.62145 4.54259 9.5899 4.19558 9.55836C4.22713 9.33754 4.22713 9.14826 4.22713 8.95899C4.22713 8.45426 4.35331 8.35962 3.94322 8.07571C3.84858 7.91798 3.7224 7.72871 3.59621 7.57098C3.3123 7.28707 3.40694 7.31861 3.56467 6.94006C3.59621 6.78233 3.62776 6.62461 3.65931 6.49842C3.59621 6.34069 3.56467 6.18296 3.50158 6.02524C3.37539 5.89905 3.24921 5.74132 3.12303 5.61514C2.42902 5.42587 2.46057 5.5205 1.95584 4.98423C1.8612 4.8265 1.76656 4.66877 1.64038 4.51104C1.29338 4.10095 1.35647 4.16404 1.23028 3.65931C1.19874 3.43849 1.16719 3.21767 1.13565 3.02839C1.1041 2.90221 1.07256 2.77603 1.04101 2.68139C1.67192 1.60883 2.71293 0.820189 3.94322 0.536278C3.91167 0.694006 3.88013 0.851735 3.84858 1.04101C3.09148 1.64038 2.71293 1.79811 3.62776 2.14511C3.84858 2.49211 3.78549 2.64984 4.0694 2.42902C4.0694 2.23975 4.03785 2.05047 4.00631 1.8612C4.57413 1.48265 4.4164 1.54574 5.07886 1.89274C5.1735 1.98738 5.26814 2.08202 5.36278 2.17666C5.80442 2.36593 5.83596 2.27129 5.45741 2.5552C5.36278 2.52366 5.23659 2.52366 5.11041 2.49211C5.04732 2.5552 4.98423 2.6183 4.92114 2.68139C5.07886 3.02839 5.1735 2.99685 4.8265 3.09148C4.73186 3.15457 4.63722 3.24921 4.54259 3.3123C4.4164 3.3123 4.29022 3.3123 4.16404 3.3123C4.16404 3.3123 4.16404 3.69085 4.16404 3.75394C4.16404 3.84858 3.88013 4.10095 3.88013 4.10095C3.88013 4.10095 3.7224 4.32177 3.81703 4.44795C3.88013 4.57413 3.7224 4.66877 3.7224 4.66877C3.62776 4.57413 3.56467 4.44795 3.47003 4.35331C3.34385 4.35331 3.18612 4.38486 3.02839 4.4164C2.93375 4.4795 2.83912 4.51104 2.74448 4.57413C2.71293 4.66877 2.68139 4.79495 2.68139 4.88959C2.71293 5.04732 2.74448 5.20505 2.80757 5.36278C2.87066 5.36278 2.9653 5.36278 3.05994 5.33123C3.05994 4.85804 2.9653 4.85804 3.34385 5.1735C3.37539 5.26814 3.37539 5.36278 3.37539 5.48896C3.50158 5.5205 3.59621 5.55205 3.69085 5.5836C3.7224 5.67823 3.7224 5.80442 3.7224 5.89905C3.88013 6.02524 4.03785 6.11987 4.19558 6.21451C4.54259 6.2776 4.92114 6.2776 5.20505 6.49842C5.42587 6.62461 5.64669 6.71924 5.89905 6.81388C5.89905 6.90852 5.9306 7.00315 5.96214 7.09779C6.08833 7.12934 6.24606 7.12934 6.37224 7.12934C6.52997 7.16088 6.6877 7.16088 6.84543 7.16088C6.84543 7.25552 6.84543 7.35016 6.84543 7.44479C6.78233 7.98107 6.75079 7.88644 6.37224 8.23344C6.24606 8.32808 6.11987 8.42271 5.99369 8.5489C5.67823 8.99054 5.77287 8.92744 5.26814 9.11672C5.23659 9.27445 5.20505 9.46372 5.1735 9.62145Z" fill="white"/>
</svg>
