<svg width="50" height="61" viewBox="0 0 50 61" fill="none" xmlns="http://www.w3.org/2000/svg">
<path d="M12.9452 22.867C12.844 22.7941 12.7306 22.7435 12.6113 22.718C12.492 22.6924 12.3692 22.6926 12.25 22.7183C12.1307 22.744 12.0173 22.7948 11.9163 22.8679C11.8152 22.9409 11.7284 23.0348 11.661 23.144C11.5935 23.2533 11.5466 23.3758 11.5229 23.5047C11.4993 23.6335 11.4994 23.7661 11.5232 23.8949C11.547 24.0237 11.5941 24.1462 11.6617 24.2553C11.7294 24.3645 11.8163 24.4581 11.9174 24.531L14.6952 26.531C14.8733 26.6593 15.0871 26.717 15.3002 26.6942C15.5132 26.6714 15.7124 26.5696 15.8637 26.406L21.4193 20.406C21.588 20.2174 21.6813 19.9648 21.6792 19.7026C21.6771 19.4404 21.5797 19.1896 21.408 19.0042C21.2363 18.8188 21.0041 18.7136 20.7613 18.7114C20.5186 18.7091 20.2847 18.8099 20.11 18.992L15.0915 24.412L12.9452 22.867Z" fill="#DD7713"/>
<path d="M26.8517 22.406H39.8147C40.0602 22.406 40.2958 22.3007 40.4694 22.1131C40.643 21.9256 40.7406 21.6712 40.7406 21.406C40.7406 21.1408 40.643 20.8865 40.4694 20.6989C40.2958 20.5114 40.0602 20.406 39.8147 20.406H26.8517C26.6061 20.406 26.3706 20.5114 26.197 20.6989C26.0233 20.8865 25.9258 21.1408 25.9258 21.406C25.9258 21.6712 26.0233 21.9256 26.197 22.1131C26.3706 22.3007 26.6061 22.406 26.8517 22.406Z" fill="#DD7713"/>
<path d="M26.8517 26.4057H34.2591C34.5047 26.4057 34.7402 26.3003 34.9138 26.1128C35.0875 25.9252 35.185 25.6709 35.185 25.4057C35.185 25.1404 35.0875 24.8861 34.9138 24.6985C34.7402 24.511 34.5047 24.4057 34.2591 24.4057H26.8517C26.6061 24.4057 26.3706 24.511 26.197 24.6985C26.0233 24.8861 25.9258 25.1404 25.9258 25.4057C25.9258 25.6709 26.0233 25.9252 26.197 26.1128C26.3706 26.3003 26.6061 26.4057 26.8517 26.4057Z" fill="#DD7713"/>
<path d="M39.8149 24.4057H37.963C37.7175 24.4057 37.482 24.511 37.3083 24.6985C37.1347 24.8861 37.0371 25.1404 37.0371 25.4057C37.0371 25.6709 37.1347 25.9252 37.3083 26.1128C37.482 26.3003 37.7175 26.4057 37.963 26.4057H39.8149C40.0605 26.4057 40.296 26.3003 40.4696 26.1128C40.6433 25.9252 40.7408 25.6709 40.7408 25.4057C40.7408 25.1404 40.6433 24.8861 40.4696 24.6985C40.296 24.511 40.0605 24.4057 39.8149 24.4057Z" fill="#DD7713"/>
<path d="M26.8517 38.0031H39.8147C40.0602 38.0031 40.2958 37.8978 40.4694 37.7102C40.643 37.5227 40.7406 37.2683 40.7406 37.0031C40.7406 36.7379 40.643 36.4835 40.4694 36.296C40.2958 36.1085 40.0602 36.0031 39.8147 36.0031H26.8517C26.6061 36.0031 26.3706 36.1085 26.197 36.296C26.0233 36.4835 25.9258 36.7379 25.9258 37.0031C25.9258 37.2683 26.0233 37.5227 26.197 37.7102C26.3706 37.8978 26.6061 38.0031 26.8517 38.0031Z" fill="#DD7713"/>
<path d="M26.8517 42.0027H34.2591C34.5047 42.0027 34.7402 41.8974 34.9138 41.7098C35.0875 41.5223 35.185 41.2679 35.185 41.0027C35.185 40.7375 35.0875 40.4832 34.9138 40.2956C34.7402 40.1081 34.5047 40.0027 34.2591 40.0027H26.8517C26.6061 40.0027 26.3706 40.1081 26.197 40.2956C26.0233 40.4832 25.9258 40.7375 25.9258 41.0027C25.9258 41.2679 26.0233 41.5223 26.197 41.7098C26.3706 41.8974 26.6061 42.0027 26.8517 42.0027Z" fill="#DD7713"/>
<path d="M39.8149 40.0027H37.963C37.7175 40.0027 37.482 40.1081 37.3083 40.2956C37.1347 40.4832 37.0371 40.7375 37.0371 41.0027C37.0371 41.2679 37.1347 41.5223 37.3083 41.7098C37.482 41.8974 37.7175 42.0027 37.963 42.0027H39.8149C40.0605 42.0027 40.296 41.8974 40.4696 41.7098C40.6433 41.5223 40.7408 41.2679 40.7408 41.0027C40.7408 40.7375 40.6433 40.4832 40.4696 40.2956C40.296 40.1081 40.0605 40.0027 39.8149 40.0027Z" fill="#DD7713"/>
<path d="M19.8563 34.0027H12.4489C12.2033 34.0027 11.9678 34.1081 11.7941 34.2956C11.6205 34.4832 11.5229 34.7375 11.5229 35.0027V43.0027C11.5229 43.2679 11.6205 43.5223 11.7941 43.7098C11.9678 43.8974 12.2033 44.0027 12.4489 44.0027H19.8563C20.1018 44.0027 20.3374 43.8974 20.511 43.7098C20.6846 43.5223 20.7822 43.2679 20.7822 43.0027V35.0027C20.7822 34.7375 20.6846 34.4832 20.511 34.2956C20.3374 34.1081 20.1018 34.0027 19.8563 34.0027ZM18.9303 42.0027H13.3748V36.0027H18.9303V42.0027Z" fill="#DD7713"/>
<path d="M45.3704 3.0054H31.0481C30.3284 2.02827 29.406 1.24764 28.3554 0.726547C27.3047 0.205457 26.1553 -0.0414797 25 0.00568261C23.9488 -0.0136874 22.9098 0.250498 21.977 0.774301C21.0443 1.2981 20.2473 2.06497 19.6583 3.0054H4.62963C3.40223 3.00699 2.22552 3.53423 1.35761 4.47148C0.489705 5.40873 0.00147024 6.67946 0 8.00492V55.0005C0.00147024 56.3259 0.489705 57.5967 1.35761 58.5339C2.22552 59.4712 3.40223 59.9984 4.62963 60H45.3704C46.5978 59.9984 47.7745 59.4712 48.6424 58.5339C49.5103 57.5967 49.9985 56.3259 50 55.0005V8.00492C49.9985 6.67946 49.5103 5.40873 48.6424 4.47148C47.7745 3.53423 46.5978 3.00699 45.3704 3.0054ZM12.963 13.0045H37.037C37.2826 13.0045 37.5181 12.8991 37.6918 12.7116C37.8654 12.5241 37.963 12.2697 37.963 12.0045C37.963 10.8717 37.9481 9.87875 37.9 9.00483H44.4444V54.0006H5.55556V9.00483H12.1963C12.083 9.99994 12.0298 11.002 12.037 12.0045C12.037 12.2697 12.1346 12.5241 12.3082 12.7116C12.4819 12.8991 12.7174 13.0045 12.963 13.0045ZM25 2.00549C26.2481 1.92829 27.4833 2.31302 28.5016 3.09618C29.5199 3.87934 30.2604 5.01409 30.6009 6.31308C30.6765 6.56517 30.8416 6.77458 31.06 6.89532C31.2784 7.01606 31.5322 7.03825 31.7657 6.95702C31.982 6.87124 32.1854 6.75165 32.3694 6.60206C32.9138 6.1671 33.5837 5.9555 34.2593 6.00511C35.563 6.00511 36.0528 6.00511 36.1111 11.0046H13.9037C14.0556 6.00511 15.3852 6.00511 16.6667 6.00511C17.4691 6.11868 18.2392 6.41853 18.9241 6.88403C19.0485 6.96756 19.1896 7.018 19.3356 7.03119C19.4816 7.04439 19.6285 7.01997 19.7641 6.95993C19.8997 6.8999 20.0201 6.80598 20.1155 6.68587C20.211 6.56577 20.2786 6.42293 20.313 6.26909C20.4971 5.07259 21.07 3.98613 21.929 3.20472C22.7881 2.42331 23.8769 1.99813 25 2.00549ZM48.1481 55.0005C48.1481 55.796 47.8555 56.559 47.3346 57.1216C46.8136 57.6842 46.1071 58.0002 45.3704 58.0002H4.62963C3.89292 58.0002 3.18638 57.6842 2.66544 57.1216C2.14451 56.559 1.85185 55.796 1.85185 55.0005V8.00492C1.85185 7.20935 2.14451 6.44636 2.66544 5.88381C3.18638 5.32125 3.89292 5.00521 4.62963 5.00521H13.7537C13.2167 5.55271 12.8213 6.24201 12.6065 7.00502H4.62963C4.38406 7.00502 4.14855 7.11037 3.9749 7.29788C3.80126 7.4854 3.7037 7.73973 3.7037 8.00492V55.0005C3.7037 55.2657 3.80126 55.52 3.9749 55.7075C4.14855 55.895 4.38406 56.0004 4.62963 56.0004H45.3704C45.6159 56.0004 45.8515 55.895 46.0251 55.7075C46.1987 55.52 46.2963 55.2657 46.2963 55.0005V8.00492C46.2963 7.73973 46.1987 7.4854 46.0251 7.29788C45.8515 7.11037 45.6159 7.00502 45.3704 7.00502H37.6852C37.583 6.27444 37.3063 5.5852 36.8824 5.00521H45.3704C46.1071 5.00521 46.8136 5.32125 47.3346 5.88381C47.8555 6.44636 48.1481 7.20935 48.1481 8.00492V55.0005Z" fill="#DD7713"/>
</svg>
