<svg width="50" height="60" viewBox="0 0 50 60" fill="none" xmlns="http://www.w3.org/2000/svg">
<path d="M24.9602 4.00091C24.7738 4.00785 24.5923 4.06265 24.4332 4.16005C24.2741 4.25744 24.1428 4.39415 24.0518 4.55702C24.0518 4.55702 22.6986 7.02538 19.1235 9.61296C15.5496 12.1995 9.82022 14.83 1.09099 14.8684C1.08816 14.8684 1.08533 14.8684 1.0825 14.8684C1.04856 14.8668 1.01456 14.8668 0.980619 14.8684C0.710452 14.895 0.459993 15.0216 0.278522 15.2235C0.0970508 15.4254 -0.00229199 15.688 4.0149e-05 15.9594V24.6534C0.00342642 24.9402 0.11999 25.214 0.324335 25.4151C0.528679 25.6163 0.804243 25.7286 1.09099 25.7275H5.67551L0.0509793 47.7597C-0.0139937 48.0044 0.00852711 48.2642 0.114653 48.4941C0.0889997 48.6633 0.00150889 48.8233 4.0149e-05 48.995C1.52818e-05 48.9992 1.52818e-05 49.0035 4.0149e-05 49.0077C6.84033e-05 50.5343 0.952172 51.8236 2.24561 52.667C3.53905 53.5104 5.23442 54 7.07634 54C8.91826 54 10.5967 53.5108 11.8901 52.667C12.3323 52.3787 12.7109 52.0238 13.049 51.6397C13.3839 52.0223 13.7585 52.3796 14.1993 52.667C15.4928 53.5104 17.1882 54 19.0301 54C20.872 54 22.5504 53.5108 23.8438 52.667C24.2852 52.3793 24.6608 52.0229 24.9984 51.6397C25.3338 52.0232 25.7115 52.3791 26.1531 52.667C27.4465 53.5104 29.1419 54 30.9838 54C32.8257 54 34.4999 53.5108 35.7933 52.667C36.2373 52.3775 36.6175 52.0172 36.9564 51.6312C37.2957 52.0181 37.6747 52.377 38.1195 52.667C39.413 53.5104 41.0914 54 42.9333 54C44.7752 54 46.4536 53.5108 47.747 52.667C49.0405 51.8236 49.9926 50.5343 49.9926 49.0077C49.9921 48.8336 49.9246 48.6666 49.8992 48.4941C50.0064 48.2629 50.0289 48.0015 49.9629 47.7554L44.3384 25.7275H48.9017C49.1884 25.7286 49.464 25.6163 49.6683 25.4151C49.8727 25.214 49.9892 24.9402 49.9926 24.6534V15.9594C49.9922 15.9068 49.9879 15.8543 49.9799 15.8024C49.9746 15.7667 49.9675 15.7312 49.9586 15.6962C49.9504 15.6618 49.9405 15.6278 49.9289 15.5943C49.9289 15.5929 49.9289 15.5958 49.9289 15.5943C49.9224 15.5758 49.9153 15.5531 49.9077 15.5349C49.901 15.5192 49.8939 15.5036 49.8865 15.4882C49.8784 15.471 49.8699 15.454 49.861 15.4373C49.8528 15.4229 49.8444 15.4088 49.8355 15.3948C49.8172 15.3642 49.7974 15.3344 49.7761 15.3057C49.7535 15.2762 49.7294 15.2478 49.704 15.2208C49.6916 15.2063 49.6788 15.1921 49.6657 15.1783C49.6533 15.1667 49.6405 15.1554 49.6275 15.1444C49.6004 15.1203 49.5721 15.0977 49.5426 15.0764C49.5274 15.0647 49.5118 15.0534 49.4959 15.0425C49.482 15.0337 49.4678 15.0252 49.4535 15.017C49.4368 15.0066 49.4198 14.9967 49.4026 14.9873C49.3872 14.9799 49.3716 14.9728 49.3559 14.9661C49.2576 14.9211 49.1531 14.8911 49.046 14.8769C49.0094 14.8722 48.9725 14.8694 48.9356 14.8684C48.93 14.8684 48.9243 14.8684 48.9186 14.8684C48.9127 14.8684 48.9076 14.8685 48.9017 14.8684C40.1799 14.8239 34.4539 12.1982 30.8819 9.61296C27.3068 7.02538 25.9536 4.55702 25.9536 4.55702C25.8556 4.38155 25.7109 4.23667 25.5355 4.1385C25.3602 4.04033 25.161 3.9927 24.9602 4.00091ZM25.0027 6.93004C25.8143 8.02927 27.1124 9.56817 29.6084 11.3747C31.3674 12.6478 33.7667 13.8555 36.5234 14.8684H13.4819C16.2387 13.8555 18.638 12.6478 20.3969 11.3747C22.893 9.56817 24.191 8.02927 25.0027 6.93004ZM2.18194 17.0504H47.8277V23.5624H2.18194V17.0504ZM7.91259 25.7275H11.9707V47.4031C11.8658 47.5502 11.7992 47.7212 11.7769 47.9006C11.7547 48.08 11.7775 48.2621 11.8434 48.4304C11.9224 48.6284 11.9702 48.8196 11.9707 49.0077C11.9707 49.6337 11.5713 50.2872 10.7015 50.8544C9.83176 51.4212 8.53532 51.818 7.07634 51.818C5.61736 51.818 4.30395 51.421 3.43419 50.8544C2.56443 50.2875 2.18195 49.6335 2.18194 49.0077C2.18355 48.8196 2.21616 48.6462 2.29655 48.4474C2.39854 48.1963 2.40308 47.9162 2.30928 47.662L7.91259 25.7275ZM14.1357 25.7275H23.9245V47.4031C23.8188 47.5498 23.7514 47.7207 23.7284 47.9001C23.7055 48.0794 23.7276 48.2617 23.7929 48.4304C23.8719 48.6284 23.924 48.8196 23.9245 49.0077C23.9245 49.6337 23.525 50.2872 22.6552 50.8544C21.7855 51.4212 20.4891 51.818 19.0301 51.818C17.5711 51.818 16.2577 51.421 15.3879 50.8544C14.5182 50.2875 14.1357 49.6335 14.1357 49.0077C14.1373 48.8196 14.1657 48.6462 14.246 48.4474C14.3174 48.2782 14.3446 48.0936 14.3253 47.911C14.306 47.7284 14.2408 47.5536 14.1357 47.4031V25.7275ZM26.0894 25.7275H35.874V47.4031C35.769 47.5502 35.7024 47.7212 35.6801 47.9006C35.6579 48.08 35.6807 48.2621 35.7466 48.4304C35.8256 48.6284 35.8734 48.8196 35.874 49.0077C35.874 49.6337 35.4787 50.2872 34.609 50.8544C33.7392 51.4212 32.4428 51.818 30.9838 51.818C29.5248 51.818 28.2114 51.421 27.3416 50.8544C26.4719 50.2875 26.0894 49.6335 26.0894 49.0077C26.091 48.8196 26.1194 48.6462 26.1998 48.4474C26.2711 48.2782 26.2984 48.0936 26.2791 47.911C26.2598 47.7284 26.1945 47.5536 26.0894 47.4031V25.7275ZM38.0389 25.7275H42.0843L47.7003 47.6451V47.662C47.6122 47.9117 47.6183 48.1849 47.7173 48.4304C47.7963 48.6284 47.8272 48.8196 47.8277 49.0077C47.8277 49.6337 47.4282 50.2872 46.5585 50.8544C45.6887 51.4212 44.3923 51.818 42.9333 51.818C41.4743 51.818 40.1779 51.421 39.3081 50.8544C38.4384 50.2875 38.0389 49.6335 38.0389 49.0077C38.0405 48.8196 38.0901 48.6462 38.1705 48.4474C38.2388 48.2764 38.2625 48.0909 38.2395 47.9082C38.2165 47.7256 38.1475 47.5518 38.0389 47.4031V25.7275Z" fill="#DD7713"/>
<path d="M5 20C5 19.4477 5.44772 19 6 19H20C20.5523 19 21 19.4477 21 20C21 20.5523 20.5523 21 20 21H6C5.44772 21 5 20.5523 5 20Z" fill="#DD7713"/>
<path d="M23 20C23 19.4477 23.4477 19 24 19H26C26.5523 19 27 19.4477 27 20C27 20.5523 26.5523 21 26 21H24C23.4477 21 23 20.5523 23 20Z" fill="#DD7713"/>
<path d="M29 20C29 19.4477 29.4477 19 30 19H44C44.5523 19 45 19.4477 45 20C45 20.5523 44.5523 21 44 21H30C29.4477 21 29 20.5523 29 20Z" fill="#DD7713"/>
</svg>
