<svg width="50" height="61" viewBox="0 0 50 61" fill="none" xmlns="http://www.w3.org/2000/svg">
<path d="M45.3704 22.003H33.6833C35.3176 20.1644 36.4154 17.8477 36.8403 15.3408C37.2652 12.8339 36.9984 10.2474 36.0732 7.90286C35.148 5.55836 33.605 3.55928 31.6363 2.1542C29.6675 0.749114 27.3598 0 25 0C22.6402 0 20.3325 0.749114 18.3637 2.1542C16.395 3.55928 14.852 5.55836 13.9268 7.90286C13.0015 10.2474 12.7348 12.8339 13.1597 15.3408C13.5846 17.8477 14.6824 20.1644 16.3167 22.003H4.62963C3.40178 22.003 2.22421 22.5297 1.35599 23.4674C0.487763 24.4051 0 25.6769 0 27.003C0 28.329 0.487763 29.6008 1.35599 30.5385C2.22421 31.4762 3.40178 32.0029 4.62963 32.0029H12.963V55.0029C12.963 56.329 13.4507 57.6008 14.3189 58.5385C15.1872 59.4762 16.3647 60.0029 17.5926 60.0029C18.8204 60.0029 19.998 59.4762 20.8662 58.5385C21.7345 57.6008 22.2222 56.329 22.2222 55.0029V47.0029C22.2222 46.2073 22.5149 45.4442 23.0358 44.8816C23.5567 44.319 24.2633 44.0029 25 44.0029C25.7367 44.0029 26.4432 44.319 26.9642 44.8816C27.4851 45.4442 27.7778 46.2073 27.7778 47.0029V55.0029C27.7778 56.329 28.2655 57.6008 29.1338 58.5385C30.002 59.4762 31.1796 60.0029 32.4074 60.0029C33.6353 60.0029 34.8128 59.4762 35.681 58.5385C36.5493 57.6008 37.037 56.329 37.037 55.0029V32.0029H45.3704C46.5982 32.0029 47.7758 31.4762 48.644 30.5385C49.5122 29.6008 50 28.329 50 27.003C50 25.6769 49.5122 24.4051 48.644 23.4674C47.7758 22.5297 46.5982 22.003 45.3704 22.003ZM1.85185 27.003C1.85185 26.2073 2.14451 25.4442 2.66544 24.8816C3.18638 24.319 3.89292 24.003 4.62963 24.003H6.48148V30.003H4.62963C3.89292 30.003 3.18638 29.6869 2.66544 29.1243C2.14451 28.5617 1.85185 27.7986 1.85185 27.003ZM8.33333 30.003V24.003H10.1852V30.003H8.33333ZM35.1852 38.0029H14.8148V36.0029H35.1852V38.0029ZM32.4074 58.0029C31.6707 58.0029 30.9642 57.6869 30.4432 57.1243C29.9223 56.5617 29.6296 55.7986 29.6296 55.0029V47.0029C29.6296 45.6769 29.1419 44.4051 28.2736 43.4674C27.4054 42.5297 26.2279 42.0029 25 42.0029C23.7721 42.0029 22.5946 42.5297 21.7264 43.4674C20.8581 44.4051 20.3704 45.6769 20.3704 47.0029V55.0029C20.3704 55.7986 20.0777 56.5617 19.5568 57.1243C19.0358 57.6869 18.3293 58.0029 17.5926 58.0029C16.8559 58.0029 16.1493 57.6869 15.6284 57.1243C15.1075 56.5617 14.8148 55.7986 14.8148 55.0029V40.0029H35.1852V55.0029C35.1852 55.7986 34.8925 56.5617 34.3716 57.1243C33.8507 57.6869 33.1441 58.0029 32.4074 58.0029ZM36.1111 30.003C35.8655 30.003 35.63 30.1083 35.4564 30.2958C35.2827 30.4834 35.1852 30.7377 35.1852 31.003V34.0029H14.8148V31.003C14.8148 30.7377 14.7173 30.4834 14.5436 30.2958C14.37 30.1083 14.1345 30.003 13.8889 30.003H12.037V24.003H18.863C19.0618 24.0029 19.2553 23.9337 19.4149 23.8056C19.5746 23.6775 19.6917 23.4974 19.7492 23.2918C19.8066 23.0862 19.8012 22.8661 19.7338 22.664C19.6665 22.462 19.5406 22.2888 19.375 22.17C17.5505 20.8646 16.1638 18.9593 15.4204 16.7362C14.677 14.5131 14.6164 12.0906 15.2476 9.82737C15.8787 7.56418 17.168 5.58074 18.9246 4.17086C20.6811 2.76098 22.8115 1.99965 25 1.99965C27.1885 1.99965 29.3189 2.76098 31.0754 4.17086C32.832 5.58074 34.1213 7.56418 34.7524 9.82737C35.3836 12.0906 35.323 14.5131 34.5796 16.7362C33.8362 18.9593 32.4495 20.8646 30.625 22.17C30.4594 22.2888 30.3335 22.462 30.2662 22.664C30.1988 22.8661 30.1934 23.0862 30.2508 23.2918C30.3083 23.4974 30.4254 23.6775 30.5851 23.8056C30.7447 23.9337 30.9382 24.0029 31.137 24.003H37.963V30.003H36.1111ZM39.8148 30.003V24.003H41.6667V30.003H39.8148ZM45.3704 30.003H43.5185V24.003H45.3704C46.1071 24.003 46.8136 24.319 47.3346 24.8816C47.8555 25.4442 48.1481 26.2073 48.1481 27.003C48.1481 27.7986 47.8555 28.5617 47.3346 29.1243C46.8136 29.6869 46.1071 30.003 45.3704 30.003Z" fill="#DD7713"/>
<path d="M21.2963 11.003C21.508 11.0007 21.7124 10.9193 21.8748 10.7728C22.0373 10.6262 22.1478 10.4234 22.1875 10.1989C22.2273 9.97435 22.1938 9.74187 22.0929 9.54092C21.9919 9.33997 21.8297 9.18295 21.6338 9.0965C21.4378 9.01006 21.2202 8.99953 21.0178 9.06669C20.8155 9.13385 20.6409 9.27458 20.5237 9.46497C20.4066 9.65535 20.354 9.88368 20.375 10.1112C20.396 10.3386 20.4892 10.5513 20.6389 10.713C20.8164 10.8955 21.0512 10.9991 21.2963 11.003Z" fill="#DD7713"/>
<path d="M29.0556 9.08295C28.8869 9.00637 28.7011 8.98545 28.5215 9.02282C28.3418 9.0602 28.1765 9.15419 28.0463 9.29295C27.8773 9.48469 27.7814 9.73822 27.7778 10.003C27.7792 10.1336 27.8044 10.2627 27.8519 10.383C27.8988 10.5041 27.9646 10.6157 28.0463 10.713C28.2238 10.8955 28.4586 10.9991 28.7037 11.003C28.8247 11.0014 28.9442 10.9742 29.0556 10.923C29.1705 10.878 29.2748 10.8064 29.3612 10.7131C29.4476 10.6197 29.514 10.507 29.5556 10.383C29.6075 10.2643 29.6328 10.1341 29.6296 10.003C29.626 9.73822 29.5302 9.48469 29.3611 9.29295C29.2711 9.2047 29.1677 9.13368 29.0556 9.08295Z" fill="#DD7713"/>
<path d="M28.7037 13.003C28.4581 13.003 28.2226 13.1083 28.049 13.2958C27.8753 13.4834 27.7778 13.7377 27.7778 14.003C27.7778 14.7986 27.4851 15.5617 26.9642 16.1243C26.4432 16.6869 25.7367 17.003 25 17.003C24.2633 17.003 23.5567 16.6869 23.0358 16.1243C22.5149 15.5617 22.2222 14.7986 22.2222 14.003C22.2222 13.7377 22.1247 13.4834 21.951 13.2958C21.7774 13.1083 21.5419 13.003 21.2963 13.003C21.0507 13.003 20.8152 13.1083 20.6416 13.2958C20.4679 13.4834 20.3704 13.7377 20.3704 14.003C20.3704 15.329 20.8581 16.6008 21.7264 17.5385C22.5946 18.4762 23.7721 19.003 25 19.003C26.2279 19.003 27.4054 18.4762 28.2736 17.5385C29.1419 16.6008 29.6296 15.329 29.6296 14.003C29.6296 13.7377 29.5321 13.4834 29.3584 13.2958C29.1848 13.1083 28.9493 13.003 28.7037 13.003Z" fill="#DD7713"/>
</svg>
